<svg width="33.4" height="33.4" viewBox="0 0 33.4 33.4" fill="none" xmlns="http://www.w3.org/2000/svg">
    <path d="M1.12871 0.400391H32.8289C33.3289 0.400391 33.6287 0.800378 33.6287 1.20038V32.9003C33.6287 33.4003 33.2289 33.7004 32.8289 33.7004H1.12871C0.628713 33.7004 0.328909 33.3003 0.328909 32.9003V1.20038C0.228909 0.800378 0.628713 0.400391 1.12871 0.400391Z" fill="#6AB651"/>
    <path d="M17.6284 24.3L13.9287 17.8H15.7285L12.5288 12.2H14.1284L10.2285 5.5L6.32861 12.2H7.92871L4.62842 17.8H6.52881L2.72852 24.3H9.22852V28.1H11.2285V24.3H17.6284Z" fill="white"/>
    <path d="M20.4287 28.5001V24.4L15.3286 23.3L12.7285 18.6L15.6284 14.2L16.8286 9.60004L21.8286 6.5L26.7285 9.60004L28.0288 14.2L30.9287 18.6L28.2285 23.3L23.2285 24.4V28.5001H20.4287Z" fill="white"/>
    <path d="M21.8286 6L21.4287 6.20001L16.7285 9.10004L16.5288 9.29999L16.4287 9.60004L15.2285 14L12.5288 18.1L12.2285 18.5L12.4287 18.9L14.9287 23.3L15.1284 23.6L15.4287 23.7L20.0288 24.6V28.8H23.5288V24.6L28.1284 23.7L28.4287 23.6L28.6284 23.3L31.1284 18.9L31.3286 18.5L31.1284 18.1L28.4287 14L27.2285 9.60004L27.1284 9.29999L26.9287 9.10004L22.3286 6.20001L21.8286 6ZM21.8286 6.90002L26.4287 9.79999L27.6284 14.3L30.4287 18.5L27.9287 22.9L22.7285 24.0001V28.1H20.6284V24.0001L15.4287 22.9L12.9287 18.5L15.7285 14.3L16.9287 9.70001L21.8286 6.90002Z" fill="#6AB651"/>
    <path d="M19.228 26.8005L18.228 23.8005L16.8281 23.6006L18.0283 27.2006L19.228 26.8005Z" fill="#6AB651"/>
</svg>
