<svg width="33.4" height="33.4" viewBox="0 0 33.4 33.4" fill="none" xmlns="http://www.w3.org/2000/svg">
    <path d="M33.0288 33.4H0.828613C0.528613 33.4 0.228516 33.1 0.228516 32.8V0.600037C0.228516 0.300037 0.528613 0 0.828613 0H33.0288C33.3288 0 33.6284 0.300037 33.6284 0.600037V32.8C33.6284 33.1 33.3288 33.4 33.0288 33.4Z" fill="#E73140"/>
    <path d="M26.7285 11.3002L16.9287 6.2002L7.12842 11.3002L6.72852 12.5002H27.1284L26.7285 11.3002Z" fill="white"/>
    <path d="M10.5273 13.7998H8.02734V22.6998H10.5273V13.7998Z" fill="white"/>
    <path d="M25.8281 13.7998H23.3281V22.6998H25.8281V13.7998Z" fill="white"/>
    <path d="M15.6289 13.7998H13.1289V22.6998H15.6289V13.7998Z" fill="white"/>
    <path d="M20.7285 13.7998H18.2285V22.6998H20.7285V13.7998Z" fill="white"/>
    <path d="M18.229 10.0002C18.229 10.7002 17.6292 11.3002 16.9292 11.3002C16.2292 11.3002 15.6289 10.7002 15.6289 10.0002C15.6289 9.30018 16.2292 8.7002 16.9292 8.7002C17.6292 8.7002 18.229 9.30018 18.229 10.0002Z" fill="#E73140"/>
    <path d="M28.2285 25.2H27.5288L27.1284 24H6.72852L6.32861 25.2H5.62842L5.22852 26.5H28.6284L28.2285 25.2Z" fill="white"/>
</svg>
