<svg width="33.4" height="33.4" viewBox="0 0 33.4 33.4" fill="none" xmlns="http://www.w3.org/2000/svg">
    <path d="M1.12871 0.700195H32.8289C33.3289 0.700195 33.6287 1.10018 33.6287 1.50018V33.2002C33.6287 33.7002 33.2289 34.0002 32.8289 34.0002H1.12871C0.628713 34.0002 0.328909 33.6002 0.328909 33.2002V1.50018C0.228909 1.10018 0.628713 0.700195 1.12871 0.700195Z" fill="#F07F3C"/>
    <path d="M3.92773 13.5999L16.9277 7.7998L29.8276 13.4998V14.4998L16.9277 20.1998L3.92773 14.3998V13.5999Z" fill="white"/>
    <path d="M16.9272 21.7998L8.02734 17.7998V22.7998L16.9272 26.7998L25.8271 22.7998V17.7998L16.9272 21.7998Z" fill="white"/>
    <path d="M28.2285 16.6999V25.2999L29.0288 24.8999V16.3999L28.2285 16.6999Z" fill="white"/>
    <path d="M29.6284 24.2998L27.7285 25.1998V27.3998L29.6284 26.5999V24.2998Z" fill="white"/>
</svg>
