<svg width="33.4" height="33.4" viewBox="0 0 33.4 33.4" fill="none" xmlns="http://www.w3.org/2000/svg">
    <path d="M1.12871 0.800049H32.8289C33.3289 0.800049 33.6287 1.2001 33.6287 1.6001V33.3C33.6287 33.8 33.2289 34.1001 32.8289 34.1001H1.12871C0.628713 34.1001 0.328909 33.7 0.328909 33.3V1.6001C0.228909 1.2001 0.628713 0.800049 1.12871 0.800049Z" fill="#2B4C9B"/>
    <path d="M18.5293 13.5997L23.3291 3.99976H21.729L17.6289 12.2997H16.3291L12.1289 3.99976H10.6289L15.4292 13.5997H11.4292V28.4998L12.9292 29.9998H21.0293L22.4292 28.5997V13.5997H18.5293Z" fill="white"/>
    <path d="M19.8281 25.4001H13.8281V26.1002H19.8281V25.4001Z" fill="#2B4C9B"/>
    <path d="M18.8281 26.8H13.8281V27.5001H18.8281V26.8Z" fill="#2B4C9B"/>
    <path d="M16.9272 16.3C17.7272 16.3 18.3271 16.9001 18.3271 17.7001C18.3271 18.5001 17.7272 19.1001 16.9272 19.1001C16.1272 19.1001 15.5273 18.5001 15.5273 17.7001C15.5273 16.9001 16.1272 16.3 16.9272 16.3Z" fill="#2B4C9B"/>
    <path d="M14.2285 24.2003V21.4003L15.5288 20.1003H18.3286L19.6284 21.4003V24.2003H14.2285Z" fill="#2B4C9B"/>
</svg>
