<svg width="33.4" height="33.4" viewBox="0 0 33.4 33.4" fill="none" xmlns="http://www.w3.org/2000/svg">
    <path d="M33.0293 33.5004H0.829102C0.529102 33.5004 0.229004 33.2003 0.229004 32.9003V0.700317C0.229004 0.400317 0.529102 0.100342 0.829102 0.100342H33.0293C33.3293 0.100342 33.6289 0.400317 33.6289 0.700317V32.9003C33.6289 33.2003 33.3293 33.5004 33.0293 33.5004Z" fill="#32A2DB"/>
    <path d="M25.6284 17.2999L25.8286 16L22.7285 15.2999L21.2285 11.2999L18.4287 9.69995L13.7285 9.19995L10.5288 11.8999L11.3286 12.7999L14.1284 10.8999L16.6284 11.7L13.5288 17.7L10.6284 21.6L6.42871 20.1L5.72852 21.2L10.9287 24L15.9287 19.7999L19.3286 22.3999L19.2285 28.3999L20.5288 28.5L21.7285 21.7L18.2285 18L20.0288 14.2L21.7285 16.7999L25.6284 17.2999Z" fill="white"/>
    <path d="M23.3291 7.50024C23.3291 8.70024 22.329 9.60022 21.229 9.60022C20.029 9.60022 19.1289 8.60024 19.1289 7.50024C19.1289 6.30024 20.129 5.40015 21.229 5.40015C22.329 5.40015 23.3291 6.30024 23.3291 7.50024Z" fill="white"/>
</svg>
