<svg width="33.4" height="33.4" viewBox="0 0 33.4 33.4" fill="none" xmlns="http://www.w3.org/2000/svg">
    <path d="M1.52881 0.300049H33.2285C33.7285 0.300049 34.0288 0.700098 34.0288 1.1001V32.8C34.0288 33.3 33.6285 33.6001 33.2285 33.6001H1.52881C1.02881 33.6001 0.728516 33.2001 0.728516 32.8V1.1001C0.728516 0.700098 1.12881 0.300049 1.52881 0.300049Z" fill="#845BA6"/>
    <path d="M4.02881 18.6001C4.32881 18.0001 4.72881 17.3001 5.02881 16.7001C5.02881 16.6001 5.02881 16.5 5.02881 16.4C4.92881 15.8 4.82852 15.2001 4.72852 14.7001C4.72852 14.6001 4.72852 14.6001 4.72852 14.5001C4.72852 14.1001 4.92861 13.8 5.32861 13.9C5.92861 14 6.62852 14.1001 7.22852 14.2001C7.32852 14.2001 7.52842 14.2001 7.62842 14.1001C8.12842 13.8001 8.72852 13.5001 9.22852 13.2001C9.72852 13.0001 10.0284 13.1001 10.1284 13.7001C10.2284 14.3001 10.3286 14.9001 10.3286 15.5001C10.3286 15.6001 10.4288 15.7 10.5288 15.8C10.9288 16.2 11.4286 16.6001 11.8286 17.0001C12.2286 17.4001 12.2284 17.8001 11.6284 18.0001C11.1284 18.3001 10.5288 18.5 10.0288 18.8C9.92881 18.8 9.82861 18.9001 9.82861 19.0001C9.52861 19.6001 9.32881 20.1001 9.02881 20.7001C8.82881 21.2001 8.42842 21.2 8.12842 20.9C7.72842 20.4 7.22861 20.0001 6.82861 19.5001C6.72861 19.4001 6.62881 19.4 6.52881 19.3C5.92881 19.2 5.32852 19.1001 4.72852 19.1001C4.42852 19.1001 4.22842 19.0001 4.12842 18.7001V18.6001H4.02881ZM5.82861 15.1001C5.92861 15.6001 6.02842 16 6.12842 16.4C6.22842 16.7 6.12881 16.9001 6.02881 17.2001C5.82881 17.6001 5.62871 18 5.42871 18.4C5.92871 18.5 6.32861 18.5001 6.82861 18.6001C7.12861 18.6001 7.32871 18.7 7.42871 18.9C7.72871 19.2 8.02861 19.6 8.32861 19.9C8.52861 19.5 8.72861 19.1 8.82861 18.8C8.92861 18.5 9.22881 18.2001 9.52881 18.1001C9.92881 17.9001 10.2284 17.8001 10.6284 17.6001C10.2284 17.2001 9.92881 16.9001 9.52881 16.6001C9.42881 16.5001 9.32861 16.3001 9.32861 16.2001C9.22861 15.7001 9.22842 15.2001 9.12842 14.7001C8.72842 14.9001 8.32871 15.1 7.92871 15.3C7.62871 15.5 7.42842 15.5 7.12842 15.4C6.72842 15.2 6.32861 15.2001 5.82861 15.1001Z" fill="white"/>
    <path d="M20.4286 14.0002C20.4286 14.5002 20.1283 14.7002 19.6283 14.6002C18.8283 14.3002 18.1285 14.1001 17.3285 13.8001C17.2285 13.8001 17.0285 13.8001 16.8285 13.8001C16.1285 14.0001 15.3283 14.3002 14.6283 14.6002C14.0283 14.8002 13.8285 14.6002 13.8285 14.0002C13.8285 13.2002 13.8286 12.4002 13.9286 11.6002C13.9286 11.5002 13.9285 11.3001 13.8285 11.2001C13.3285 10.6001 12.8285 9.90012 12.3285 9.30012C12.0285 8.90012 12.1283 8.5001 12.6283 8.4001C13.4283 8.2001 14.1286 8.00015 14.9286 7.70015C15.0286 7.70015 15.2284 7.6002 15.2284 7.5002C15.7284 6.8002 16.1283 6.2002 16.6283 5.5002C16.9283 5.1002 17.3283 5.1002 17.6283 5.5002C18.1283 6.2002 18.5287 6.8002 19.0287 7.5002C19.1287 7.6002 19.2286 7.70012 19.4286 7.80012C20.2286 8.00012 20.9284 8.3002 21.7284 8.5002C22.2284 8.7002 22.3287 9.0001 22.0287 9.4001C21.5287 10.0001 21.0287 10.7001 20.5287 11.3001C20.4287 11.4001 20.4286 11.5001 20.4286 11.7001C20.4286 12.1001 20.4286 12.5001 20.4286 12.9001M19.3285 13.4001C19.3285 12.9001 19.3285 12.4001 19.3285 11.9001C19.2285 11.3001 19.4285 10.8001 19.8285 10.4001C20.0285 10.2001 20.2286 9.90017 20.4286 9.60017C20.5286 9.50017 20.6284 9.30015 20.7284 9.20015C20.1284 9.00015 19.5286 8.80015 18.9286 8.70015C18.6286 8.60015 18.3283 8.40017 18.1283 8.10017C17.8283 7.60017 17.4283 7.10017 17.1283 6.60017C16.7283 7.20017 16.3286 7.80012 15.9286 8.30012C15.8286 8.40012 15.6287 8.60017 15.5287 8.60017C15.1287 8.70017 14.6284 8.9002 14.2284 9.0002C14.0284 9.1002 13.8287 9.10015 13.5287 9.20015C13.8287 9.60015 14.0285 9.90015 14.3285 10.2001C15.0285 11.1001 15.0286 11.1002 14.9286 12.1002C14.9286 12.5002 14.9286 12.9001 14.9286 13.3001C15.5286 13.1001 16.1284 12.9001 16.7284 12.7001C17.0284 12.6001 17.2287 12.6001 17.5287 12.7001C18.1287 13.0001 18.7285 13.2001 19.3285 13.4001Z" fill="white"/>
    <path d="M29.7283 14.5C29.6283 15.1 29.5284 15.7999 29.3284 16.3999C29.3284 16.4999 29.3285 16.6999 29.4285 16.7999C29.7285 17.2999 30.0284 17.8999 30.3284 18.3999C30.6284 18.8999 30.4284 19.1999 29.8284 19.2999C29.2284 19.3999 28.6286 19.5 28.0286 19.5C27.9286 19.5 27.8283 19.5999 27.7283 19.6999C27.3283 20.0999 26.8285 20.6 26.4285 21C26.0285 21.4 25.7285 21.2999 25.4285 20.7999C25.1285 20.1999 24.9282 19.6999 24.6282 19.0999C24.5282 18.9999 24.4284 18.8999 24.3284 18.7999C23.7284 18.4999 23.2282 18.3 22.6282 18C22.1282 17.8 22.1285 17.4 22.4285 17C22.8285 16.6 23.3283 16.1999 23.7283 15.6999C23.8283 15.5999 23.8285 15.4999 23.9285 15.3999C24.0285 14.7999 24.1283 14.2 24.2283 13.5C24.3283 13 24.6286 12.7999 25.0286 13.0999C25.6286 13.3999 26.1283 13.7 26.7283 14C26.8283 14.1 27.0282 14.0999 27.1282 14.0999C27.7282 13.9999 28.4286 13.8999 29.0286 13.7999C29.4286 13.8999 29.7283 14.1 29.7283 14.5ZM25.2283 14.5999C25.1283 15.0999 25.1286 15.4999 25.0286 15.8999C25.0286 16.1999 24.9282 16.4999 24.6282 16.6999C24.3282 16.9999 24.0282 17.2999 23.6282 17.5999C24.0282 17.7999 24.5285 17.9999 24.9285 18.1999C25.1285 18.2999 25.3285 18.4999 25.4285 18.6999C25.6285 19.0999 25.8286 19.5 26.0286 20C26.4286 19.6 26.7286 19.2999 27.0286 18.8999C27.1286 18.7999 27.3286 18.6999 27.5286 18.6999C28.0286 18.5999 28.5286 18.6 29.0286 18.5C28.8286 18 28.5284 17.5999 28.3284 17.1999C28.2284 16.9999 28.2283 16.7999 28.2283 16.6999C28.3283 16.1999 28.4286 15.6999 28.5286 15.1999C28.0286 15.2999 27.5286 15.4 27.0286 15.5C26.8286 15.5 26.6286 15.4999 26.5286 15.3999C26.1286 14.9999 25.7283 14.7999 25.2283 14.5999Z" fill="white"/>
    <path d="M24.2285 8.80002C24.3285 8.40002 24.1286 8.00005 23.8286 7.70005C23.7286 7.60005 23.6288 7.40002 23.5288 7.30002C23.3288 7.00002 23.4286 6.6001 23.8286 6.5001C23.9286 6.5001 24.0284 6.4 24.1284 6.4C24.7284 6.3 25.1287 6.0001 25.4287 5.5001C25.7287 4.8001 26.3284 4.8001 26.6284 5.5001C26.9284 6.0001 27.3287 6.3 27.9287 6.4H28.0288C28.6288 6.6 28.8286 6.9 28.3286 7.4C27.8286 7.9 27.7286 8.40007 27.8286 9.10007C27.9286 9.70007 27.5288 10 27.0288 9.70005C26.3288 9.40005 25.7284 9.40005 25.1284 9.70005C24.7284 9.90005 24.3286 9.60005 24.3286 9.20005V9.10007V8.80002H24.2285ZM24.8286 7.20005C25.0286 7.40005 25.1285 7.60002 25.2285 7.80002C25.3285 8.00002 25.2285 8.30007 25.2285 8.60007C25.5285 8.50007 25.7287 8.4 25.9287 8.4C26.1287 8.4 26.4285 8.50007 26.7285 8.60007C26.7285 8.40007 26.6285 8.1 26.7285 7.9C26.8285 7.7 27.0284 7.50005 27.1284 7.20005C26.5284 7.20005 26.2287 6.90002 25.9287 6.30002C25.7287 6.90002 25.3286 7.20005 24.8286 7.20005Z" fill="white"/>
    <path d="M6.62837 8.79988C6.72837 8.39988 6.62857 7.9999 6.32857 7.6999C6.22857 7.5999 6.12876 7.39988 6.02876 7.29988C5.82876 6.99988 5.92857 6.59995 6.32857 6.49995C6.62857 6.39995 6.92847 6.2999 7.22847 6.1999C7.32847 6.0999 7.52837 5.99985 7.62837 5.89985C7.82837 5.69985 7.92837 5.3999 8.12837 5.1999C8.42837 4.7999 8.72876 4.7999 9.02876 5.1999L9.12837 5.29988C9.42837 5.89988 9.92837 6.29985 10.6284 6.39985C10.8284 6.39985 11.0284 6.4999 11.1284 6.6999C11.1284 6.8999 11.1284 6.9999 11.1284 7.1999C11.1284 7.1999 11.1288 7.29988 11.0288 7.29988C10.4288 7.79988 10.3287 8.4999 10.4287 9.1999C10.5287 9.6999 10.1284 9.9999 9.62837 9.6999C8.92837 9.3999 8.32837 9.3999 7.62837 9.6999C7.12837 9.8999 6.82857 9.69993 6.82857 9.09993C6.62857 9.09993 6.62837 8.99988 6.62837 8.79988ZM7.72847 8.59993C8.22847 8.29993 8.72847 8.39993 9.22847 8.59993C9.12847 7.99993 9.22837 7.5999 9.62837 7.1999C9.32837 7.0999 9.12866 7.09985 8.92866 6.89985C8.72866 6.79985 8.62866 6.49988 8.42866 6.29988C8.22866 6.79988 7.82847 7.0999 7.22847 7.1999C7.62847 7.5999 7.72847 8.09993 7.72847 8.59993Z" fill="white"/>
    <path d="M16.8286 29.3002C16.8286 29.7002 16.6286 29.9001 16.3286 29.9001C16.0286 29.9001 15.8285 29.7001 15.7285 29.4001C15.6285 28.8001 15.5287 28.2002 15.4287 27.6002C14.8287 25.3002 13.5286 23.3002 11.8286 21.6002C11.4286 21.2002 10.9287 20.8001 10.4287 20.4001C10.1287 20.2001 10.0285 19.9002 10.2285 19.6002C10.4285 19.3002 10.7288 19.3002 11.0288 19.5002C14.0288 21.8002 16.0285 24.7001 16.7285 28.4001C16.7285 28.8001 16.7286 29.1002 16.8286 29.3002Z" fill="white"/>
    <path d="M17.6283 29.3C17.7283 27.9 18.1285 26.5001 18.8285 25.2001C19.8285 23.0001 21.3284 21.2001 23.2284 19.7001C23.3284 19.7001 23.3286 19.6001 23.4286 19.6001C23.7286 19.4001 24.0284 19.4001 24.2284 19.7001C24.4284 20.0001 24.3287 20.2001 24.0287 20.5001C23.5287 20.9001 23.0283 21.3001 22.6283 21.7001C20.7283 23.6001 19.4285 25.8001 18.8285 28.5001C18.7285 28.8001 18.7284 29.1 18.7284 29.4C18.7284 29.6 18.6285 29.9 18.3285 29.9C17.9285 30 17.5283 29.7 17.6283 29.3Z" fill="white"/>
    <path d="M17.7285 19.7999C17.7285 21.1999 17.7285 22.5999 17.7285 23.8999C17.7285 24.0999 17.7284 24.1999 17.6284 24.3999C17.5284 24.5999 17.3284 24.6 17.1284 24.5C17.0284 24.4 16.9285 24.2 16.7285 24.1C16.7285 24.1 16.7285 23.9999 16.7285 23.8999C16.7285 21.0999 16.7285 18.4 16.7285 15.6V15.5C16.7285 15.2 16.9285 15 17.2285 15C17.5285 15 17.7285 15.2 17.7285 15.5C17.7285 15.8 17.7285 15.9999 17.7285 16.2999C17.7285 17.4999 17.7285 18.6999 17.7285 19.7999Z" fill="white"/>
    <path d="M25.8288 24.8C26.1288 24.8 26.3289 25.0001 26.4289 25.2001C26.5289 25.4001 26.329 25.7 26.029 25.8C25.529 26 24.929 26.2001 24.529 26.5001C23.329 27.2001 22.3287 28.1 21.7287 29.4C21.5287 29.7 21.229 29.9001 21.029 29.7001C20.729 29.6001 20.7288 29.3 20.8288 28.9C21.8288 26.8 23.5287 25.5 25.7287 24.8C25.7287 24.8 25.8288 24.8 25.8288 24.8Z" fill="white"/>
    <path d="M8.42871 25.2999C8.42871 24.8999 8.72842 24.6999 9.12842 24.7999C9.92842 24.9999 10.6286 25.3999 11.3286 25.8999C12.5286 26.6999 13.4288 27.7 14.0288 29C14.2288 29.4 14.0284 29.7999 13.6284 29.7999C13.4284 29.7999 13.2284 29.7 13.1284 29.5C12.3284 27.9 11.0287 26.7999 9.42871 26.0999C9.22871 25.9999 9.02861 25.8999 8.82861 25.8999C8.52861 25.6999 8.42871 25.5999 8.42871 25.2999Z" fill="white"/>
    <path d="M7.52881 23.2001C8.02881 23.2001 8.22852 23.4001 8.22852 23.7001C8.22852 24.0001 7.92881 24.2001 7.52881 24.2001C7.42881 24.2001 7.32852 24.2001 7.22852 24.2001C6.92852 24.1001 6.82861 23.9001 6.82861 23.6001C6.82861 23.3001 7.02861 23.2001 7.32861 23.1001C7.42861 23.2001 7.42881 23.2001 7.52881 23.2001Z" fill="white"/>
    <path d="M26.8286 23.2002C27.3286 23.2002 27.5288 23.4002 27.5288 23.7002C27.5288 24.0002 27.3286 24.2002 26.8286 24.2002C26.7286 24.2002 26.6284 24.2002 26.6284 24.2002C26.3284 24.2002 26.1284 23.9002 26.1284 23.7002C26.1284 23.4002 26.3284 23.2002 26.6284 23.2002C26.7284 23.2002 26.8286 23.2002 26.8286 23.2002Z" fill="white"/>
    <path d="M5.22852 23.2002C5.72852 23.2002 5.92871 23.4002 5.92871 23.7002C5.92871 24.0002 5.62852 24.2002 5.22852 24.2002C5.12852 24.2002 5.02871 24.2002 4.92871 24.2002C4.62871 24.2002 4.42871 23.9002 4.42871 23.7002C4.42871 23.4002 4.62871 23.2002 4.92871 23.2002C5.02871 23.2002 5.12852 23.2002 5.22852 23.2002Z" fill="white"/>
    <path d="M29.1285 23.2002H29.2286C29.6286 23.2002 29.8287 23.4002 29.8287 23.7002C29.8287 24.0002 29.6286 24.2002 29.2286 24.2002C29.1286 24.2002 29.0288 24.2002 28.9288 24.2002C28.6288 24.2002 28.3288 24.0002 28.4288 23.7002C28.4288 23.4002 28.6288 23.2002 28.9288 23.2002C29.0288 23.2002 29.1285 23.2002 29.1285 23.2002Z" fill="white"/>
    <path d="M6.92871 24.9001V25.0002C6.92871 25.4002 6.72871 25.6002 6.42871 25.6002C6.12871 25.6002 5.92871 25.4002 5.92871 25.0002C5.92871 24.9002 5.92871 24.8002 5.92871 24.7002C5.92871 24.4002 6.12871 24.2002 6.42871 24.2002C6.72871 24.2002 6.92871 24.4002 6.92871 24.8002C6.92871 24.7002 6.92871 24.8001 6.92871 24.9001Z" fill="white"/>
    <path d="M28.5288 24.9001C28.5288 25.0001 28.5288 25.0002 28.5288 25.1002C28.5288 25.4002 28.3288 25.6002 28.0288 25.6002C27.7288 25.6002 27.5288 25.4002 27.5288 25.1002C27.5288 25.0002 27.5288 24.8002 27.5288 24.7002C27.5288 24.4002 27.7288 24.2002 28.0288 24.2002C28.3288 24.2002 28.5288 24.4002 28.5288 24.7002C28.5288 24.7002 28.5288 24.8001 28.5288 24.9001Z" fill="white"/>
    <path d="M6.92871 22.5001C6.92871 23.0001 6.72871 23.2001 6.42871 23.2001C6.12871 23.2001 5.92871 23.0001 5.92871 22.6001C5.92871 22.5001 5.92871 22.4 5.92871 22.3C5.92871 22 6.12871 21.8 6.42871 21.8C6.72871 21.8 6.92871 22 6.92871 22.4V22.5001Z" fill="white"/>
    <path d="M28.5288 22.5001C28.5288 22.6001 28.5288 22.7001 28.5288 22.7001C28.5288 23.0001 28.3288 23.2001 28.0288 23.2001C27.7288 23.2001 27.5288 23.0001 27.5288 22.7001C27.5288 22.6001 27.5288 22.4 27.5288 22.3C27.5288 22 27.7288 21.8 28.0288 21.8C28.3288 21.8 28.5288 22 28.5288 22.3C28.5288 22.4 28.5288 22.5001 28.5288 22.5001Z" fill="white"/>
    <path d="M17.7285 25.8C17.7285 26.1 17.5285 26.3 17.2285 26.3C16.9285 26.3 16.7285 26.1 16.7285 25.8C16.7285 25.5 16.9285 25.3 17.2285 25.3C17.4285 25.3 17.7285 25.5 17.7285 25.8Z" fill="white"/>
</svg>
